# xmcd
#
# Track frame offsets: 
#        150
#        15842
#        31983
#        43528
#        59372
#        74537
#        91050
#        104618
#        121068
#        133450
#        149660
#        161056
#        176679
#
# Disc length: 2559 seconds
#
# Revision: 1
# Processed by: cddbd v1.5.2PL0 Copyright (c) Steve Scherf et al.
# Submitted via: ExactAudioCopy v1.0b6
#
DISCID=b709fd0d
DTITLE=Jason James - Jason James
DYEAR=2015
DGENRE=Country
TTITLE0=Here Comes The Heartache
TTITLE1=I've Been Drinkin' More
TTITLE2=Hot Mouth Mama
TTITLE3=Fancy Limousine
TTITLE4=World Of Make Believe
TTITLE5=Back In My Arms
TTITLE6=Buppa-Bup-Bow-Bow
TTITLE7=True Blues
TTITLE8=I Wonder If You'll Ever Come Around
TTITLE9=I'll Set You Free
TTITLE10=Pullin' Out The Suit
TTITLE11=Welcome To The Blues
TTITLE12=Walk Through My Heart
EXTD=YEAR: 2015
EXTT0=
EXTT1=
EXTT2=
EXTT3=
EXTT4=
EXTT5=
EXTT6=
EXTT7=
EXTT8=
EXTT9=
EXTT10=
EXTT11=
EXTT12=
PLAYORDER=
